<mxfile host="app.diagrams.net" modified="2024-06-19T01:16:20.913Z" agent="Mozilla/5.0 (Windows NT 10.0; Win64; x64) AppleWebKit/537.36 (KHTML, like Gecko) Chrome/126.0.0.0 Safari/537.36" version="24.5.1" etag="QT02L74fb5tvFOPLdmjo" type="github">
  <diagram name="Halaman-1" id="uwc64HAlouAahDs7Hg8z">
    <mxGraphModel>
      <root>
        <mxCell id="0" />
        <mxCell id="1" parent="0" />
      </root>
    </mxGraphModel>
  </diagram>
</mxfile>
